<svg xmlns="http://www.w3.org/2000/svg" width="200" height="26" focusable="false" tabindex="-1"><path fill="#F48F00" d="M26.923 5.918h4.346l3.301 8.905h.053l3.058-8.905h4.051l-5.151 13.09h-4.265z"></path><path fill="#007FAD" d="M11.159 9.137h-3.97v4.382c0 .357.045.684.084.979.039.295.14.549.278.764.137.215.355.38.641.495.286.117.668.174 1.14.174.236 0 .56-.021.944-.067.384-.045.67-.148.885-.308v3.353a8.041 8.041 0 0 1-1.547.322c-.53.054-1.058.08-1.57.08-.749 0-1.44-.071-2.068-.215a4.93 4.93 0 0 1-1.655-.684 3.293 3.293 0 0 1-1.121-1.22c-.265-.501-.411-1.109-.411-1.824V9.135H0V5.918h2.79V2.055h4.399v3.863h3.97v3.219zM12.232 5.918h4.078v2.146h.04c.429-.859.939-1.418 1.529-1.82.59-.403 1.333-.61 2.227-.61.232 0 .47.007.703.025.233.019.436.052.651.105V9.44a7.394 7.394 0 0 0-.851-.201 5.474 5.474 0 0 0-.875-.068c-.769 0-1.379.108-1.826.322a2.42 2.42 0 0 0-1.034.898c-.241.385-.392.845-.463 1.381a13.446 13.446 0 0 0-.101 1.772v5.462h-4.078V5.918zM22.426 5.918h3.97v13.09h-3.97V5.918zm-.163-3.444c0-.59.209-1.094.627-1.511a2.055 2.055 0 0 1 1.511-.628c.591 0 1.094.209 1.512.628.418.418.627.921.627 1.511 0 .589-.209 1.094-.627 1.51a2.056 2.056 0 0 1-1.512.628 2.057 2.057 0 0 1-1.511-.628 2.053 2.053 0 0 1-.627-1.51"></path><path fill="#F48F00" d="M48.56 13.321c-.304 0-.684-.009-1.141.018a5.896 5.896 0 0 0-1.314.217c-.42.125-.778.308-1.073.557-.295.251-.443.596-.443 1.044 0 .483.205.839.618 1.072.411.232.84.348 1.287.348.394 0 .774-.054 1.14-.162.367-.107.693-.26.979-.456a2.21 2.21 0 0 0 .694-.751c.17-.304.263-.661.263-1.073v-.814h-1.01zm1.012 4.078h-.073c-.447.644-1.043 1.177-1.784 1.48a6.114 6.114 0 0 1-2.348.445c-.608 0-1.194-.09-1.758-.261a4.44 4.44 0 0 1-1.489-.767 3.687 3.687 0 0 1-1.019-1.263c-.251-.5-.376-1.082-.376-1.744 0-.751.138-1.387.416-1.905a3.7 3.7 0 0 1 1.127-1.288 5.602 5.602 0 0 1 1.624-.791 11.757 11.757 0 0 1 1.892-.416 18.432 18.432 0 0 1 1.959-.162 70.256 70.256 0 0 1 1.81-.027c0-.714-.254-1.283-.764-1.703-.51-.42-1.114-.63-1.811-.63-.661 0-1.266.138-1.81.415a4.964 4.964 0 0 0-1.462 1.141l-2.147-2.2a7.37 7.37 0 0 1 2.63-1.569 9.394 9.394 0 0 1 3.113-.523c1.18 0 2.15.147 2.911.443.76.295 1.368.729 1.825 1.302.456.572.756 1.273.935 2.106.179.832.251 1.793.251 2.884v6.643h-3.648V17.4h-.004z"></path><path fill="#C94A30" d="M71.988 12.472c0 .984.255 1.78.765 2.387.511.608 1.226.912 2.149.912s1.638-.304 2.148-.912c.51-.608.765-1.404.765-2.387 0-.984-.255-1.78-.765-2.388-.51-.608-1.225-.912-2.148-.912s-1.638.305-2.149.912c-.51.609-.765 1.404-.765 2.388m-3.641 0c0-1.037.171-1.976.509-2.818.34-.84.805-1.559 1.397-2.158a6.066 6.066 0 0 1 2.087-1.382 6.807 6.807 0 0 1 2.561-.484c.906 0 1.759.162 2.56.484a6.099 6.099 0 0 1 2.088 1.382 6.499 6.499 0 0 1 1.395 2.158c.34.842.511 1.781.511 2.818s-.171 1.976-.511 2.816a6.473 6.473 0 0 1-1.395 2.159 6.063 6.063 0 0 1-2.088 1.381 6.802 6.802 0 0 1-2.56.484 6.807 6.807 0 0 1-2.561-.484 6.05 6.05 0 0 1-2.087-1.381 6.503 6.503 0 0 1-1.397-2.159c-.339-.84-.509-1.779-.509-2.816M64.092 5.905v1.754h-.061c-.071-.096-.169-.242-.457-.489-.38-.327-.657-.48-1.033-.688a5.72 5.72 0 0 0-1.288-.51 6.865 6.865 0 0 0-1.663-.228 5.43 5.43 0 0 0-2.522.639c-.736.386-1.274.778-1.766 1.431-.484.643-.767 1.287-.994 2.128-.227.839-.284 1.806-.284 2.667 0 .986.149 1.922.39 2.767.243.851.633 1.618 1.138 2.197.55.63 1.114.956 1.904 1.288.79.332 1.629.453 2.599.442.613-.007 1.21-.142 1.9-.407.84-.323 1.426-.928 1.658-1.256h.046v1.268c0 .933-.204 1.7-.786 2.301-.583.601-1.434.924-2.673.924-.825 0-1.343.017-2.183-.21-.729-.197-1.647-.545-2.328-1.044l-1.958 2.874c1.044.755 1.987 1.22 3.12 1.52 1.121.297 2.269.39 3.436.39 2.549 0 4.352-.642 5.6-1.925 1.247-1.283 1.756-3.163 1.756-5.64V5.905h-3.551zm-1.003 8.972c-.511.611-1.229.915-2.154.915-.926 0-1.643-.304-2.156-.915-.511-.61-.767-1.409-.767-2.395s.256-1.785.767-2.396c.512-.61 1.23-.916 2.156-.916.925 0 1.643.306 2.154.916.512.611.768 1.41.768 2.396-.001.986-.257 1.785-.768 2.395z"></path><circle cx="168.897" cy="3.238" r=".893"></circle><path d="M102.822 5.918c-1.742 0-3.279.87-4.207 2.196h-.069a5.124 5.124 0 0 0-4.207-2.196 5.134 5.134 0 0 0-5.134 5.134v7.067a.893.893 0 0 0 1.786 0v-7.067a3.348 3.348 0 0 1 6.696 0v7.067a.893.893 0 0 0 1.786 0v-7.067a3.348 3.348 0 0 1 6.696 0v7.067a.893.893 0 0 0 1.786 0v-7.067a5.132 5.132 0 0 0-5.133-5.134zM131.166 5.918a6.546 6.546 0 0 0 0 13.092 6.52 6.52 0 0 0 4.76-2.062v.865a4.76 4.76 0 0 1-6.985 4.209.893.893 0 0 0-.816 1.589 6.546 6.546 0 0 0 9.587-5.798v-5.349a6.546 6.546 0 0 0-6.546-6.546zm0 11.306a4.76 4.76 0 1 1 0-9.52 4.76 4.76 0 0 1 0 9.52zM178.786 5.918a6.329 6.329 0 0 0-6.329 6.329v5.872a.893.893 0 0 0 1.786 0v-5.872a4.543 4.543 0 0 1 9.086 0v5.872a.893.893 0 0 0 1.786 0v-5.872a6.33 6.33 0 0 0-6.329-6.329zM168.886 5.918c-.493 0-.893.4-.893.893v11.306a.893.893 0 0 0 1.786 0V6.811c0-.493-.4-.893-.893-.893zM193.45 5.918a6.55 6.55 0 1 0 5.039 10.733.893.893 0 0 0-1.37-1.145l-.002.002a4.761 4.761 0 0 1-8.341-2.147h10.331c.493 0 .893-.4.893-.893a6.55 6.55 0 0 0-6.55-6.55zm0 1.786a4.761 4.761 0 0 1 4.674 3.871h-9.348a4.761 4.761 0 0 1 4.674-3.871zM151.697 5.918c-.493 0-.893.4-.893.893V7.98a6.52 6.52 0 0 0-4.76-2.062 6.546 6.546 0 0 0 0 13.092 6.52 6.52 0 0 0 4.76-2.062v1.169a.893.893 0 0 0 1.786 0V6.811a.893.893 0 0 0-.893-.893zm-5.653 11.306a4.76 4.76 0 1 1 0-9.52 4.76 4.76 0 0 1 0 9.52zM121.942 5.918c-.493 0-.893.4-.893.893V7.98a6.52 6.52 0 0 0-4.76-2.062 6.546 6.546 0 0 0 0 13.092 6.52 6.52 0 0 0 4.76-2.062v1.169a.893.893 0 0 0 1.786 0V6.811c0-.493-.4-.893-.893-.893zm-5.653 11.306a4.76 4.76 0 1 1 0-9.52 4.76 4.76 0 0 1 0 9.52zM164.421 17.224h-7.292l7.973-9.855a.88.88 0 0 0 .212-.559c0-.493-.4-.893-.893-.893h-9.152a.893.893 0 0 0 0 1.786h7.286l-7.971 9.861a.879.879 0 0 0-.208.552c0 .493.4.893.893.893h9.152a.893.893 0 0 0 0-1.785z"></path></svg>